# xmcd
#
# Track frame offsets:
#	150
#	81565
#	114775
#	161574
#	206664
#
# Disc length: 2950 seconds
#
# Revision: 0
# Processed by: cddbd v1.5.2PL0 Copyright (c) Steve Scherf et al.
# Submitted via: audiograbber 1.83.01
#
DISCID=3a0b8405
DTITLE=Grateful Dead - 94-10-10 USAir Arena, Landover MD
DYEAR=1900
DGENRE=
TTITLE0=Space
TTITLE1=All Along The Watchtower
TTITLE2=Stella Blue
TTITLE3=Not Fade Away
TTITLE4=I Fought The Law
EXTD=
EXTT0=
EXTT1=
EXTT2=
EXTT3=
EXTT4=
PLAYORDER=
